# xmcd
#
# Track frame offsets: 
#        150
#        10956
#        24691
#        42373
#        53934
#        70127
#        78660
#        97962
#        114498
#        134753
#        156323
#        168187
#        183057
#        202673
#
# Disc length: 2955 seconds
#
# Revision: 0
# Processed by: cddbd v1.5.2PL0 Copyright (c) Steve Scherf et al.
# Submitted via: ExactAudioCopyFreeDBPlugin 1.0
#
DISCID=b50b890e
DTITLE=Annick Cisaruk and David Venitucci - La vie en vrac
DYEAR=2017
DGENRE=
TTITLE0=La lettre
TTITLE1=C'est la  ville
TTITLE2=La logeuse
TTITLE3=Mes origines
TTITLE4=Les gitans
TTITLE5=L'amour
TTITLE6=Naufrage
TTITLE7=Sur le couteau d'Antonio Ruiz
TTITLE8=La complainte d'Anna Ruzascki
TTITLE9=L'éther
TTITLE10=Les accordéonistes
TTITLE11=Océanovox
TTITLE12=Du plus loin que mes souvenirs
TTITLE13=Je suis
EXTD=
EXTT0=
EXTT1=
EXTT2=
EXTT3=
EXTT4=
EXTT5=
EXTT6=
EXTT7=
EXTT8=
EXTT9=
EXTT10=
EXTT11=
EXTT12=
EXTT13=
PLAYORDER=
